<mxfile host="app.diagrams.net" modified="2023-08-29T17:19:59.350Z" agent="Mozilla/5.0 (Macintosh; Intel Mac OS X 10_15_7) AppleWebKit/537.36 (KHTML, like Gecko) Chrome/116.0.0.0 Safari/537.36" etag="t5SdklxS6Hh07Q-CwJmj" version="21.7.0" type="github">
  <diagram name="ica" id="jJCeSG0IoPa3USaC70qB">
    <mxGraphModel dx="897" dy="665" grid="1" gridSize="10" guides="1" tooltips="1" connect="1" arrows="1" fold="1" page="1" pageScale="1" pageWidth="850" pageHeight="1100" math="0" shadow="0">
      <root>
        <mxCell id="0" />
        <mxCell id="1" parent="0" />
      </root>
    </mxGraphModel>
  </diagram>
</mxfile>
